<svg version="1.1" xmlns="http://www.w3.org/2000/svg" xmlns:xlink="http://www.w3.org/1999/xlink" width="413" height="438.5"><defs><linearGradient id="NzFkxaaAiASy" x1="400px" x2="400px" y1="1174.7000007152558px" y2="2688.700007152557px" gradientUnits="userSpaceOnUse"><stop offset="0" stop-color="rgb(211,211,211)" stop-opacity="1"/><stop offset="1" stop-color="rgb(211,211,211)" stop-opacity="1"/></linearGradient><linearGradient id="BqqeWoohBelQ" x1="676.5px" x2="708.5px" y1="1133.2000007152558px" y2="1133.2000007152558px" gradientUnits="userSpaceOnUse"><stop offset="0" stop-color="rgb(211,211,211)" stop-opacity="1"/><stop offset="1" stop-color="rgb(211,211,211)" stop-opacity="1"/></linearGradient><linearGradient id="pvzcpGcXKgFe" x1="985px" x2="400px" y1="1174.7000007152558px" y2="2688.700007152557px" gradientUnits="userSpaceOnUse"><stop offset="0" stop-color="rgb(211,211,211)" stop-opacity="1"/><stop offset="1" stop-color="rgb(211,211,211)" stop-opacity="1"/></linearGradient><linearGradient id="BObarquGpaTS" x1="1403.0000007152557px" x2="2088.2000007152556px" y1="441.5px" y2="1124.7000014305115px" gradientUnits="userSpaceOnUse"><stop offset="0" stop-color="rgb(211,211,211)" stop-opacity="1"/><stop offset="1" stop-color="rgb(29,122,218)" stop-opacity="1"/></linearGradient><linearGradient id="edwDtxJlRvIk" x1="2329.7000014305113px" x2="1679.5000007152557px" y1="400px" y2="400px" gradientUnits="userSpaceOnUse"><stop offset="0" stop-color="rgb(211,211,211)" stop-opacity="1"/><stop offset="1" stop-color="rgb(211,211,211)" stop-opacity="1"/></linearGradient><linearGradient id="qWPulEOgkvJt" x1="2606.2000014305113px" x2="400px" y1="441.5px" y2="3754.100010728836px" gradientUnits="userSpaceOnUse"><stop offset="0" stop-color="rgb(211,211,211)" stop-opacity="1"/><stop offset="1" stop-color="rgb(211,211,211)" stop-opacity="1"/></linearGradient><linearGradient id="vRcUbdFyzFKH" x1="2329.7000014305113px" x2="1261.5px" y1="400px" y2="1133.2000007152558px" gradientUnits="userSpaceOnUse"><stop offset="0" stop-color="rgb(211,211,211)" stop-opacity="1"/><stop offset="1" stop-color="rgb(211,211,211)" stop-opacity="1"/></linearGradient><linearGradient id="LbcWRhuJzBcT" x1="2606.2000014305113px" x2="2088.2000007152556px" y1="441.5px" y2="1922.700005722046px" gradientUnits="userSpaceOnUse"><stop offset="0" stop-color="rgb(211,211,211)" stop-opacity="1"/><stop offset="1" stop-color="rgb(29,122,218)" stop-opacity="1"/></linearGradient><linearGradient id="lhuSdqPhnxNR" x1="2606.2000014305113px" x2="2088.2000007152556px" y1="441.5px" y2="1523.7000035762787px" gradientUnits="userSpaceOnUse"><stop offset="0" stop-color="rgb(211,211,211)" stop-opacity="1"/><stop offset="1" stop-color="rgb(29,122,218)" stop-opacity="1"/></linearGradient><linearGradient id="oxRdVQyTUOei" x1="576.5px" x2="2329.7000014305113px" y1="300px" y2="400px" gradientUnits="userSpaceOnUse"><stop offset="0" stop-color="rgb(255,193,7)" stop-opacity="1"/><stop offset="1" stop-color="rgb(211,211,211)" stop-opacity="1"/></linearGradient><linearGradient id="PqQDBVccxBDD" x1="576.5px" x2="2914.7000014305113px" y1="433.00000071525574px" y2="1133.2000007152558px" gradientUnits="userSpaceOnUse"><stop offset="0" stop-color="rgb(255,193,7)" stop-opacity="1"/><stop offset="1" stop-color="rgb(211,211,211)" stop-opacity="1"/></linearGradient><linearGradient id="cSMrBPSeqJIv" x1="926.7000007152558px" x2="676.5px" y1="2730.200007152557px" y2="2730.200007152557px" gradientUnits="userSpaceOnUse"><stop offset="0" stop-color="rgb(211,211,211)" stop-opacity="1"/><stop offset="1" stop-color="rgb(211,211,211)" stop-opacity="1"/></linearGradient><linearGradient id="ThhRpDRyuhrG" x1="400px" x2="400px" y1="3021.9000078678127px" y2="2771.700007152557px" gradientUnits="userSpaceOnUse"><stop offset="0" stop-color="rgb(211,211,211)" stop-opacity="1"/><stop offset="1" stop-color="rgb(211,211,211)" stop-opacity="1"/></linearGradient><linearGradient id="PDlXuDZRTmWg" x1="676.5px" x2="926.7000007152558px" y1="3063.4000078678127px" y2="2730.200007152557px" gradientUnits="userSpaceOnUse"><stop offset="0" stop-color="rgb(211,211,211)" stop-opacity="1"/><stop offset="1" stop-color="rgb(211,211,211)" stop-opacity="1"/></linearGradient><linearGradient id="OCXqtPGJRtgu" x1="400px" x2="400px" y1="3754.100010728836px" y2="2771.700007152557px" gradientUnits="userSpaceOnUse"><stop offset="0" stop-color="rgb(211,211,211)" stop-opacity="1"/><stop offset="1" stop-color="rgb(211,211,211)" stop-opacity="1"/></linearGradient><linearGradient id="hSnCUVAMMnyE" x1="400px" x2="400px" y1="3887.1000114440917px" y2="2771.700007152557px" gradientUnits="userSpaceOnUse"><stop offset="0" stop-color="rgb(211,211,211)" stop-opacity="1"/><stop offset="1" stop-color="rgb(211,211,211)" stop-opacity="1"/></linearGradient><linearGradient id="NAJXNNExSEFO" x1="400px" x2="400px" y1="3621.1000100135802px" y2="2771.700007152557px" gradientUnits="userSpaceOnUse"><stop offset="0" stop-color="rgb(211,211,211)" stop-opacity="1"/><stop offset="1" stop-color="rgb(211,211,211)" stop-opacity="1"/></linearGradient><linearGradient id="lHKcsDwSOlTA" x1="926.7000007152558px" x2="676.5px" y1="3196.4000085830685px" y2="3063.4000078678127px" gradientUnits="userSpaceOnUse"><stop offset="0" stop-color="rgb(211,211,211)" stop-opacity="1"/><stop offset="1" stop-color="rgb(211,211,211)" stop-opacity="1"/></linearGradient><linearGradient id="riuvGUPkTNxX" x1="1203.2000007152558px" x2="400px" y1="3237.9000085830685px" y2="3488.1000092983245px" gradientUnits="userSpaceOnUse"><stop offset="0" stop-color="rgb(211,211,211)" stop-opacity="1"/><stop offset="1" stop-color="rgb(211,211,211)" stop-opacity="1"/></linearGradient><linearGradient id="FPiDdHmUGtNI" x1="400px" x2="400px" y1="3488.1000092983245px" y2="2771.700007152557px" gradientUnits="userSpaceOnUse"><stop offset="0" stop-color="rgb(211,211,211)" stop-opacity="1"/><stop offset="1" stop-color="rgb(211,211,211)" stop-opacity="1"/></linearGradient><linearGradient id="METaDRZEzAeI" x1="926.7000007152558px" x2="676.5px" y1="3063.4000078678127px" y2="3063.4000078678127px" gradientUnits="userSpaceOnUse"><stop offset="0" stop-color="rgb(211,211,211)" stop-opacity="1"/><stop offset="1" stop-color="rgb(211,211,211)" stop-opacity="1"/></linearGradient><linearGradient id="MJCDbJqJWiDL" x1="1203.2000007152558px" x2="400px" y1="3104.9000078678127px" y2="3754.100010728836px" gradientUnits="userSpaceOnUse"><stop offset="0" stop-color="rgb(211,211,211)" stop-opacity="1"/><stop offset="1" stop-color="rgb(211,211,211)" stop-opacity="1"/></linearGradient><linearGradient id="MGyVVxeDDkQz" x1="2914.7000014305113px" x2="676.5px" y1="1133.2000007152558px" y2="1133.2000007152558px" gradientUnits="userSpaceOnUse"><stop offset="0" stop-color="rgb(211,211,211)" stop-opacity="1"/><stop offset="1" stop-color="rgb(211,211,211)" stop-opacity="1"/></linearGradient><linearGradient id="fNRuUJSsXFzP" x1="3191.2000014305113px" x2="400px" y1="1174.7000007152558px" y2="3887.1000114440917px" gradientUnits="userSpaceOnUse"><stop offset="0" stop-color="rgb(211,211,211)" stop-opacity="1"/><stop offset="1" stop-color="rgb(211,211,211)" stop-opacity="1"/></linearGradient><linearGradient id="ZkHAwTnZWGbD" x1="3191.2000014305113px" x2="3191.2000014305113px" y1="1174.7000007152558px" y2="1758.1000021457673px" gradientUnits="userSpaceOnUse"><stop offset="0" stop-color="rgb(211,211,211)" stop-opacity="1"/><stop offset="1" stop-color="rgb(211,211,211)" stop-opacity="1"/></linearGradient><linearGradient id="TNwHpTSKFyTP" x1="2914.7000014305113px" x2="2364.7000007152556px" y1="1133.2000007152558px" y2="1432.200002861023px" gradientUnits="userSpaceOnUse"><stop offset="0" stop-color="rgb(211,211,211)" stop-opacity="1"/><stop offset="1" stop-color="rgb(29,122,218)" stop-opacity="1"/></linearGradient><linearGradient id="QWSHIayqXTAu" x1="3191.2000014305113px" x2="3191.2000014305113px" y1="1174.7000007152558px" y2="1424.9000014305116px" gradientUnits="userSpaceOnUse"><stop offset="0" stop-color="rgb(211,211,211)" stop-opacity="1"/><stop offset="1" stop-color="rgb(211,211,211)" stop-opacity="1"/></linearGradient><linearGradient id="LxnMTFORmlFU" x1="3191.2000014305113px" x2="400px" y1="1507.9000014305116px" y2="3887.1000114440917px" gradientUnits="userSpaceOnUse"><stop offset="0" stop-color="rgb(211,211,211)" stop-opacity="1"/><stop offset="1" stop-color="rgb(211,211,211)" stop-opacity="1"/></linearGradient><linearGradient id="NgnhUGyfosXh" x1="2914.7000014305113px" x2="676.5px" y1="1466.4000014305116px" y2="3662.6000100135802px" gradientUnits="userSpaceOnUse"><stop offset="0" stop-color="rgb(211,211,211)" stop-opacity="1"/><stop offset="1" stop-color="rgb(211,211,211)" stop-opacity="1"/></linearGradient></defs><g transform="translate(29.85,5.050000000000001) scale(0.1,0.1)"><path fill="rgb(244,236,255)" stroke="rgb(255,255,255)" paint-order="fill stroke markers" d=" M 1766.3500007152556 -48.5 L 3821.2000014305113 -48.5 L 3821.2000014305113 -48.5 A 8 8 0 0 1 3829.2000014305113 -40.5 L 3829.2000014305113 4323.600011444091 L 3829.2000014305113 4323.600011444091 A 8 8 0 0 1 3821.2000014305113 4331.600011444091 L -288.5 4331.600011444091 L -288.5 4331.600011444091 A 8 8 0 0 1 -296.5 4323.600011444091 L -296.5 -40.5 L -296.5 -40.5 A 8 8 0 0 1 -288.5 -48.5 L 1766.3500007152556 -48.5 Z" fill-opacity="1" stroke-opacity="1" stroke-miterlimit="10" stroke-width="2"/><text fill="rgb(0,0,0)" stroke="none" font-family="Avenir, Helvetica, Arial, sans-serif" font-size="32px" font-style="normal" font-weight="bold" text-decoration="normal" x="1766.3500007152556" y="26.5" text-anchor="middle" dominant-baseline="text-after-edge" fill-opacity="1">.</text><path fill="rgb(255,255,255)" stroke="rgb(211,211,211)" paint-order="fill stroke markers" d=" M 2088.2000007152556 890.7000007152557 L 2457.7000007152556 890.7000007152557 L 2457.7000007152556 890.7000007152557 A 8 8 0 0 1 2465.7000007152556 898.7000007152557 L 2465.7000007152556 2231.7000064373015 L 2465.7000007152556 2231.7000064373015 A 8 8 0 0 1 2457.7000007152556 2239.7000064373015 L 1718.7000007152556 2239.7000064373015 L 1718.7000007152556 2239.7000064373015 A 8 8 0 0 1 1710.7000007152556 2231.7000064373015 L 1710.7000007152556 898.7000007152557 L 1710.7000007152556 898.7000007152557 A 8 8 0 0 1 1718.7000007152556 890.7000007152557 L 2088.2000007152556 890.7000007152557 Z" fill-opacity="1" stroke-opacity="1" stroke-miterlimit="10"/><text fill="rgb(0,0,0)" stroke="none" font-family="Avenir, Helvetica, Arial, sans-serif" font-size="32px" font-style="normal" font-weight="bold" text-decoration="normal" x="2088.2000007152556" y="965.7000007152557" text-anchor="middle" dominant-baseline="text-after-edge" fill-opacity="1">vars.tf</text><path fill="rgb(255,255,255)" stroke="rgb(211,211,211)" paint-order="fill stroke markers" d=" M 801.6000003576279 2483.200007152557 L 1631.7000007152558 2483.200007152557 L 1631.7000007152558 2483.200007152557 A 8 8 0 0 1 1639.7000007152558 2491.200007152557 L 1639.7000007152558 4122.100011444091 L 1639.7000007152558 4122.100011444091 A 8 8 0 0 1 1631.7000007152558 4130.100011444091 L -28.5 4130.100011444091 L -28.5 4130.100011444091 A 8 8 0 0 1 -36.5 4122.100011444091 L -36.5 2491.200007152557 L -36.5 2491.200007152557 A 8 8 0 0 1 -28.5 2483.200007152557 L 801.6000003576279 2483.200007152557 Z" fill-opacity="1" stroke-opacity="1" stroke-miterlimit="10"/><text fill="rgb(0,0,0)" stroke="none" font-family="Avenir, Helvetica, Arial, sans-serif" font-size="32px" font-style="normal" font-weight="bold" text-decoration="normal" x="801.6000003576279" y="2558.200007152557" text-anchor="middle" dominant-baseline="text-after-edge" fill-opacity="1">vpc.tf</text><path fill="rgb(255,255,255)" stroke="rgb(211,211,211)" paint-order="fill stroke markers" d=" M 3191.2000014305113 886.2000007152558 L 3619.7000014305113 886.2000007152558 L 3619.7000014305113 886.2000007152558 A 8 8 0 0 1 3627.7000014305113 894.2000007152558 L 3627.7000014305113 1993.1000021457673 L 3627.7000014305113 1993.1000021457673 A 8 8 0 0 1 3619.7000014305113 2001.1000021457673 L 2762.7000014305113 2001.1000021457673 L 2762.7000014305113 2001.1000021457673 A 8 8 0 0 1 2754.7000014305113 1993.1000021457673 L 2754.7000014305113 894.2000007152558 L 2754.7000014305113 894.2000007152558 A 8 8 0 0 1 2762.7000014305113 886.2000007152558 L 3191.2000014305113 886.2000007152558 Z" fill-opacity="1" stroke-opacity="1" stroke-miterlimit="10"/><text fill="rgb(0,0,0)" stroke="none" font-family="Avenir, Helvetica, Arial, sans-serif" font-size="32px" font-style="normal" font-weight="bold" text-decoration="normal" x="3191.2000014305113" y="961.2000007152558" text-anchor="middle" dominant-baseline="text-after-edge" fill-opacity="1">rds.tf</text><path fill="rgb(255,255,255)" stroke="rgb(211,211,211)" paint-order="fill stroke markers" d=" M 692.5 827.7000007152558 L 1472 827.7000007152558 L 1472 827.7000007152558 A 8 8 0 0 1 1480 835.7000007152558 L 1480 1385.2000007152558 L 1480 1385.2000007152558 A 8 8 0 0 1 1472 1393.2000007152558 L -87 1393.2000007152558 L -87 1393.2000007152558 A 8 8 0 0 1 -95 1385.2000007152558 L -95 835.7000007152558 L -95 835.7000007152558 A 8 8 0 0 1 -87 827.7000007152558 L 692.5 827.7000007152558 Z" fill-opacity="1" stroke-opacity="1" stroke-miterlimit="10"/><text fill="rgb(0,0,0)" stroke="none" font-family="Avenir, Helvetica, Arial, sans-serif" font-size="32px" font-style="normal" font-weight="bold" text-decoration="normal" x="692.5" y="902.7000007152558" text-anchor="middle" dominant-baseline="text-after-edge" fill-opacity="1">securitygroup.tf</text><path fill="rgb(255,255,255)" stroke="rgb(211,211,211)" paint-order="fill stroke markers" d=" M 1403.0000007152557 153 L 1831.5000007152557 153 L 1831.5000007152557 153 A 8 8 0 0 1 1839.5000007152557 161 L 1839.5000007152557 593.5 L 1839.5000007152557 593.5 A 8 8 0 0 1 1831.5000007152557 601.5 L 974.5000007152557 601.5 L 974.5000007152557 601.5 A 8 8 0 0 1 966.5000007152557 593.5 L 966.5000007152557 161 L 966.5000007152557 161 A 8 8 0 0 1 974.5000007152557 153 L 1403.0000007152557 153 Z" fill-opacity="1" stroke-opacity="1" stroke-miterlimit="10"/><text fill="rgb(0,0,0)" stroke="none" font-family="Avenir, Helvetica, Arial, sans-serif" font-size="32px" font-style="normal" font-weight="bold" text-decoration="normal" x="1403.0000007152557" y="228" text-anchor="middle" dominant-baseline="text-after-edge" fill-opacity="1">key.tf</text><path fill="rgb(255,255,255)" stroke="rgb(211,211,211)" paint-order="fill stroke markers" d=" M 2606.2000014305113 153 L 3034.7000014305113 153 L 3034.7000014305113 153 A 8 8 0 0 1 3042.7000014305113 161 L 3042.7000014305113 593.5 L 3042.7000014305113 593.5 A 8 8 0 0 1 3034.7000014305113 601.5 L 2177.7000014305113 601.5 L 2177.7000014305113 601.5 A 8 8 0 0 1 2169.7000014305113 593.5 L 2169.7000014305113 161 L 2169.7000014305113 161 A 8 8 0 0 1 2177.7000014305113 153 L 2606.2000014305113 153 Z" fill-opacity="1" stroke-opacity="1" stroke-miterlimit="10"/><text fill="rgb(0,0,0)" stroke="none" font-family="Avenir, Helvetica, Arial, sans-serif" font-size="32px" font-style="normal" font-weight="bold" text-decoration="normal" x="2606.2000014305113" y="228" text-anchor="middle" dominant-baseline="text-after-edge" fill-opacity="1">instance.tf</text><path fill="rgb(255,255,255)" stroke="rgb(211,211,211)" paint-order="fill stroke markers" d=" M 300 157.5 L 669.5 157.5 L 669.5 157.5 A 8 8 0 0 1 677.5 165.5 L 677.5 567.5000007152557 L 677.5 567.5000007152557 A 8 8 0 0 1 669.5 575.5000007152557 L -69.5 575.5000007152557 L -69.5 575.5000007152557 A 8 8 0 0 1 -77.5 567.5000007152557 L -77.5 165.5 L -77.5 165.5 A 8 8 0 0 1 -69.5 157.5 L 300 157.5 Z" fill-opacity="1" stroke-opacity="1" stroke-miterlimit="10"/><text fill="rgb(0,0,0)" stroke="none" font-family="Avenir, Helvetica, Arial, sans-serif" font-size="32px" font-style="normal" font-weight="bold" text-decoration="normal" x="300" y="232.5" text-anchor="middle" dominant-baseline="text-after-edge" fill-opacity="1">output.tf</text><path fill="rgb(255,255,255)" stroke="rgb(0,0,0)" paint-order="fill stroke markers" d=" M 400 3431.6000092983245 L 725 3431.6000092983245 L 725 3431.6000092983245 A 8 8 0 0 1 733 3439.6000092983245 L 733 4018.6000114440917 L 733 4018.6000114440917 A 8 8 0 0 1 725 4026.6000114440917 L 75 4026.6000114440917 L 75 4026.6000114440917 A 8 8 0 0 1 67 4018.6000114440917 L 67 3439.6000092983245 L 67 3439.6000092983245 A 8 8 0 0 1 75 3431.6000092983245 L 400 3431.6000092983245 Z" fill-opacity="1" stroke-opacity="1" stroke-miterlimit="10" stroke-width="5"/><rect fill="rgb(255,255,255)" stroke="none" x="274.5" y="3382.6000092983245" width="251" height="96" fill-opacity="1"/><text fill="rgb(0,0,0)" stroke="none" font-family="Avenir, Helvetica, Arial, sans-serif" font-size="32px" font-style="normal" font-weight="bold" text-decoration="normal" x="400" y="3446.6000092983245" text-anchor="middle" dominant-baseline="text-after-edge" fill-opacity="1">aws_subnet</text><path fill="rgb(255,255,255)" stroke="rgb(0,0,0)" paint-order="fill stroke markers" d=" M 1203.2000007152558 2965.4000078678127 L 1528.2000007152558 2965.4000078678127 L 1528.2000007152558 2965.4000078678127 A 8 8 0 0 1 1536.2000007152558 2973.4000078678127 L 1536.2000007152558 3286.4000085830685 L 1536.2000007152558 3286.4000085830685 A 8 8 0 0 1 1528.2000007152558 3294.4000085830685 L 878.2000007152558 3294.4000085830685 L 878.2000007152558 3294.4000085830685 A 8 8 0 0 1 870.2000007152558 3286.4000085830685 L 870.2000007152558 2973.4000078678127 L 870.2000007152558 2973.4000078678127 A 8 8 0 0 1 878.2000007152558 2965.4000078678127 L 1203.2000007152558 2965.4000078678127 Z" fill-opacity="1" stroke-opacity="1" stroke-miterlimit="10" stroke-width="5"/><rect fill="rgb(255,255,255)" stroke="none" x="944.7000007152558" y="2916.4000078678127" width="517" height="96" fill-opacity="1"/><text fill="rgb(0,0,0)" stroke="none" font-family="Avenir, Helvetica, Arial, sans-serif" font-size="32px" font-style="normal" font-weight="bold" text-decoration="normal" x="1203.2000007152558" y="2980.4000078678127" text-anchor="middle" dominant-baseline="text-after-edge" fill-opacity="1">aws_route_table_association</text><path fill="rgb(255,255,255)" stroke="rgb(0,0,0)" paint-order="fill stroke markers" d=" M 400 2632.200007152557 L 725 2632.200007152557 L 725 2632.200007152557 A 8 8 0 0 1 733 2640.200007152557 L 733 2820.200007152557 L 733 2820.200007152557 A 8 8 0 0 1 725 2828.200007152557 L 75 2828.200007152557 L 75 2828.200007152557 A 8 8 0 0 1 67 2820.200007152557 L 67 2640.200007152557 L 67 2640.200007152557 A 8 8 0 0 1 75 2632.200007152557 L 400 2632.200007152557 Z" fill-opacity="1" stroke-opacity="1" stroke-miterlimit="10" stroke-width="5"/><rect fill="rgb(255,255,255)" stroke="none" x="302.5" y="2583.200007152557" width="195" height="96" fill-opacity="1"/><text fill="rgb(0,0,0)" stroke="none" font-family="Avenir, Helvetica, Arial, sans-serif" font-size="32px" font-style="normal" font-weight="bold" text-decoration="normal" x="400" y="2647.200007152557" text-anchor="middle" dominant-baseline="text-after-edge" fill-opacity="1">aws_vpc</text><path fill="rgb(255,255,255)" stroke="rgb(0,0,0)" paint-order="fill stroke markers" d=" M 1203.2000007152558 2632.200007152557 L 1528.2000007152558 2632.200007152557 L 1528.2000007152558 2632.200007152557 A 8 8 0 0 1 1536.2000007152558 2640.200007152557 L 1536.2000007152558 2820.200007152557 L 1536.2000007152558 2820.200007152557 A 8 8 0 0 1 1528.2000007152558 2828.200007152557 L 878.2000007152558 2828.200007152557 L 878.2000007152558 2828.200007152557 A 8 8 0 0 1 870.2000007152558 2820.200007152557 L 870.2000007152558 2640.200007152557 L 870.2000007152558 2640.200007152557 A 8 8 0 0 1 878.2000007152558 2632.200007152557 L 1203.2000007152558 2632.200007152557 Z" fill-opacity="1" stroke-opacity="1" stroke-miterlimit="10" stroke-width="5"/><rect fill="rgb(255,255,255)" stroke="none" x="993.7000007152558" y="2583.200007152557" width="419" height="96" fill-opacity="1"/><text fill="rgb(0,0,0)" stroke="none" font-family="Avenir, Helvetica, Arial, sans-serif" font-size="32px" font-style="normal" font-weight="bold" text-decoration="normal" x="1203.2000007152558" y="2647.200007152557" text-anchor="middle" dominant-baseline="text-after-edge" fill-opacity="1">aws_internet_gateway</text><path fill="rgb(255,255,255)" stroke="rgb(0,0,0)" paint-order="fill stroke markers" d=" M 400 2965.4000078678127 L 725 2965.4000078678127 L 725 2965.4000078678127 A 8 8 0 0 1 733 2973.4000078678127 L 733 3153.4000078678127 L 733 3153.4000078678127 A 8 8 0 0 1 725 3161.4000078678127 L 75 3161.4000078678127 L 75 3161.4000078678127 A 8 8 0 0 1 67 3153.4000078678127 L 67 2973.4000078678127 L 67 2973.4000078678127 A 8 8 0 0 1 75 2965.4000078678127 L 400 2965.4000078678127 Z" fill-opacity="1" stroke-opacity="1" stroke-miterlimit="10" stroke-width="5"/><rect fill="rgb(255,255,255)" stroke="none" x="238.5" y="2916.4000078678127" width="323" height="96" fill-opacity="1"/><text fill="rgb(0,0,0)" stroke="none" font-family="Avenir, Helvetica, Arial, sans-serif" font-size="32px" font-style="normal" font-weight="bold" text-decoration="normal" x="400" y="2980.4000078678127" text-anchor="middle" dominant-baseline="text-after-edge" fill-opacity="1">aws_route_table</text><path fill="rgb(255,255,255)" stroke="rgb(0,0,0)" paint-order="fill stroke markers" d=" M 3191.2000014305113 1035.2000007152558 L 3516.2000014305113 1035.2000007152558 L 3516.2000014305113 1035.2000007152558 A 8 8 0 0 1 3524.2000014305113 1043.2000007152558 L 3524.2000014305113 1223.2000007152558 L 3524.2000014305113 1223.2000007152558 A 8 8 0 0 1 3516.2000014305113 1231.2000007152558 L 2866.2000014305113 1231.2000007152558 L 2866.2000014305113 1231.2000007152558 A 8 8 0 0 1 2858.2000014305113 1223.2000007152558 L 2858.2000014305113 1043.2000007152558 L 2858.2000014305113 1043.2000007152558 A 8 8 0 0 1 2866.2000014305113 1035.2000007152558 L 3191.2000014305113 1035.2000007152558 Z" fill-opacity="1" stroke-opacity="1" stroke-miterlimit="10" stroke-width="5"/><rect fill="rgb(255,255,255)" stroke="none" x="3026.2000014305113" y="986.2000007152558" width="330" height="96" fill-opacity="1"/><text fill="rgb(0,0,0)" stroke="none" font-family="Avenir, Helvetica, Arial, sans-serif" font-size="32px" font-style="normal" font-weight="bold" text-decoration="normal" x="3191.2000014305113" y="1050.2000007152558" text-anchor="middle" dominant-baseline="text-after-edge" fill-opacity="1">aws_db_instance</text><path fill="rgb(255,255,255)" stroke="rgb(0,0,0)" paint-order="fill stroke markers" d=" M 3191.2000014305113 1368.4000014305116 L 3516.2000014305113 1368.4000014305116 L 3516.2000014305113 1368.4000014305116 A 8 8 0 0 1 3524.2000014305113 1376.4000014305116 L 3524.2000014305113 1556.4000014305116 L 3524.2000014305113 1556.4000014305116 A 8 8 0 0 1 3516.2000014305113 1564.4000014305116 L 2866.2000014305113 1564.4000014305116 L 2866.2000014305113 1564.4000014305116 A 8 8 0 0 1 2858.2000014305113 1556.4000014305116 L 2858.2000014305113 1376.4000014305116 L 2858.2000014305113 1376.4000014305116 A 8 8 0 0 1 2866.2000014305113 1368.4000014305116 L 3191.2000014305113 1368.4000014305116 Z" fill-opacity="1" stroke-opacity="1" stroke-miterlimit="10" stroke-width="5"/><rect fill="rgb(255,255,255)" stroke="none" x="2985.7000014305113" y="1319.4000014305116" width="411" height="96" fill-opacity="1"/><text fill="rgb(0,0,0)" stroke="none" font-family="Avenir, Helvetica, Arial, sans-serif" font-size="32px" font-style="normal" font-weight="bold" text-decoration="normal" x="3191.2000014305113" y="1383.4000014305116" text-anchor="middle" dominant-baseline="text-after-edge" fill-opacity="1">aws_db_subnet_group</text><path fill="rgb(255,255,255)" stroke="rgb(0,0,0)" paint-order="fill stroke markers" d=" M 3191.2000014305113 1701.6000021457673 L 3516.2000014305113 1701.6000021457673 L 3516.2000014305113 1701.6000021457673 A 8 8 0 0 1 3524.2000014305113 1709.6000021457673 L 3524.2000014305113 1889.6000021457673 L 3524.2000014305113 1889.6000021457673 A 8 8 0 0 1 3516.2000014305113 1897.6000021457673 L 2866.2000014305113 1897.6000021457673 L 2866.2000014305113 1897.6000021457673 A 8 8 0 0 1 2858.2000014305113 1889.6000021457673 L 2858.2000014305113 1709.6000021457673 L 2858.2000014305113 1709.6000021457673 A 8 8 0 0 1 2866.2000014305113 1701.6000021457673 L 3191.2000014305113 1701.6000021457673 Z" fill-opacity="1" stroke-opacity="1" stroke-miterlimit="10" stroke-width="5"/><rect fill="rgb(255,255,255)" stroke="none" x="2956.2000014305113" y="1652.6000021457673" width="470" height="96" fill-opacity="1"/><text fill="rgb(0,0,0)" stroke="none" font-family="Avenir, Helvetica, Arial, sans-serif" font-size="32px" font-style="normal" font-weight="bold" text-decoration="normal" x="3191.2000014305113" y="1716.6000021457673" text-anchor="middle" dominant-baseline="text-after-edge" fill-opacity="1">aws_db_parameter_group</text><path fill="rgb(255,255,255)" stroke="rgb(0,0,0)" paint-order="fill stroke markers" d=" M 692.5 976.7000007152558 L 1368.5 976.7000007152558 L 1368.5 976.7000007152558 A 8 8 0 0 1 1376.5 984.7000007152558 L 1376.5 1281.7000007152558 L 1376.5 1281.7000007152558 A 8 8 0 0 1 1368.5 1289.7000007152558 L 16.5 1289.7000007152558 L 16.5 1289.7000007152558 A 8 8 0 0 1 8.5 1281.7000007152558 L 8.5 984.7000007152558 L 8.5 984.7000007152558 A 8 8 0 0 1 16.5 976.7000007152558 L 692.5 976.7000007152558 Z" fill-opacity="1" stroke-opacity="1" stroke-miterlimit="10" stroke-width="5"/><rect fill="rgb(255,255,255)" stroke="none" x="505" y="927.7000007152558" width="375" height="96" fill-opacity="1"/><text fill="rgb(0,0,0)" stroke="none" font-family="Avenir, Helvetica, Arial, sans-serif" font-size="32px" font-style="normal" font-weight="bold" text-decoration="normal" x="692.5" y="991.7000007152558" text-anchor="middle" dominant-baseline="text-after-edge" fill-opacity="1">aws_security_group</text><path fill="rgb(255,255,255)" stroke="rgb(0,0,0)" paint-order="fill stroke markers" d=" M 1403.0000007152557 302 L 1728.0000007152557 302 L 1728.0000007152557 302 A 8 8 0 0 1 1736.0000007152557 310 L 1736.0000007152557 490 L 1736.0000007152557 490 A 8 8 0 0 1 1728.0000007152557 498 L 1078.0000007152557 498 L 1078.0000007152557 498 A 8 8 0 0 1 1070.0000007152557 490 L 1070.0000007152557 310 L 1070.0000007152557 310 A 8 8 0 0 1 1078.0000007152557 302 L 1403.0000007152557 302 Z" fill-opacity="1" stroke-opacity="1" stroke-miterlimit="10" stroke-width="5"/><rect fill="rgb(255,255,255)" stroke="none" x="1267.0000007152557" y="253" width="272" height="96" fill-opacity="1"/><text fill="rgb(0,0,0)" stroke="none" font-family="Avenir, Helvetica, Arial, sans-serif" font-size="32px" font-style="normal" font-weight="bold" text-decoration="normal" x="1403.0000007152557" y="317" text-anchor="middle" dominant-baseline="text-after-edge" fill-opacity="1">aws_key_pair</text><path fill="rgb(255,255,255)" stroke="rgb(0,0,0)" paint-order="fill stroke markers" d=" M 2606.2000014305113 302 L 2931.2000014305113 302 L 2931.2000014305113 302 A 8 8 0 0 1 2939.2000014305113 310 L 2939.2000014305113 490 L 2939.2000014305113 490 A 8 8 0 0 1 2931.2000014305113 498 L 2281.2000014305113 498 L 2281.2000014305113 498 A 8 8 0 0 1 2273.2000014305113 490 L 2273.2000014305113 310 L 2273.2000014305113 310 A 8 8 0 0 1 2281.2000014305113 302 L 2606.2000014305113 302 Z" fill-opacity="1" stroke-opacity="1" stroke-miterlimit="10" stroke-width="5"/><rect fill="rgb(255,255,255)" stroke="none" x="2468.2000014305113" y="253" width="276" height="96" fill-opacity="1"/><text fill="rgb(0,0,0)" stroke="none" font-family="Avenir, Helvetica, Arial, sans-serif" font-size="32px" font-style="normal" font-weight="bold" text-decoration="normal" x="2606.2000014305113" y="317" text-anchor="middle" dominant-baseline="text-after-edge" fill-opacity="1">aws_instance</text><path fill="none" stroke="url(#NzFkxaaAiASy)" paint-order="fill stroke markers" d=" M 400 1174.7000007152558 L 400 1931.7000039339064 L 400 1931.7000039339064 L 400 2688.700007152557" stroke-linejoin="round" stroke-miterlimit="10" stroke-width="10"/><path fill="none" stroke="url(#BqqeWoohBelQ)" paint-order="fill stroke markers" d=" M 676.5 1133.2000007152558 L 692.5 1133.2000007152558 L 692.5 1133.2000007152558 L 708.5 1133.2000007152558" stroke-linejoin="round" stroke-miterlimit="10" stroke-width="10"/><path fill="none" stroke="url(#pvzcpGcXKgFe)" paint-order="fill stroke markers" d=" M 985 1174.7000007152558 L 985 1931.7000039339064 L 400 1931.7000039339064 L 400 2688.700007152557" stroke-linejoin="round" stroke-miterlimit="10" stroke-width="10"/><path fill="none" stroke="url(#BObarquGpaTS)" paint-order="fill stroke markers" d=" M 1403.0000007152557 441.5 L 1403.0000007152557 783.1000007152558 L 2088.2000007152556 783.1000007152558 L 2088.2000007152556 1124.7000014305115" stroke-linejoin="round" stroke-miterlimit="10" stroke-width="10"/><path fill="none" stroke="url(#edwDtxJlRvIk)" paint-order="fill stroke markers" d=" M 2329.7000014305113 400 L 2004.6000010728835 400 L 2004.6000010728835 400 L 1679.5000007152557 400" stroke-linejoin="round" stroke-miterlimit="10" stroke-width="10"/><path fill="none" stroke="url(#qWPulEOgkvJt)" paint-order="fill stroke markers" d=" M 2606.2000014305113 441.5 L 2606.2000014305113 2097.800005364418 L 400 2097.800005364418 L 400 3754.100010728836" stroke-linejoin="round" stroke-miterlimit="10" stroke-width="10"/><path fill="none" stroke="url(#vRcUbdFyzFKH)" paint-order="fill stroke markers" d=" M 2329.7000014305113 400 L 1795.6000007152556 400 L 1795.6000007152556 1133.2000007152558 L 1261.5 1133.2000007152558" stroke-linejoin="round" stroke-miterlimit="10" stroke-width="10"/><path fill="none" stroke="url(#LbcWRhuJzBcT)" paint-order="fill stroke markers" d=" M 2606.2000014305113 441.5 L 2606.2000014305113 1182.1000028610229 L 2088.2000007152556 1182.1000028610229 L 2088.2000007152556 1922.700005722046" stroke-linejoin="round" stroke-miterlimit="10" stroke-width="10"/><path fill="none" stroke="url(#lhuSdqPhnxNR)" paint-order="fill stroke markers" d=" M 2606.2000014305113 441.5 L 2606.2000014305113 982.6000017881394 L 2088.2000007152556 982.6000017881394 L 2088.2000007152556 1523.7000035762787" stroke-linejoin="round" stroke-miterlimit="10" stroke-width="10"/><path fill="none" stroke="url(#oxRdVQyTUOei)" paint-order="fill stroke markers" d=" M 576.5 300 L 1453.1000007152556 300 L 1453.1000007152556 400 L 2329.7000014305113 400" stroke-linejoin="round" stroke-miterlimit="10" stroke-width="10"/><path fill="none" stroke="url(#PqQDBVccxBDD)" paint-order="fill stroke markers" d=" M 576.5 433.00000071525574 L 1745.6000007152556 433.00000071525574 L 1745.6000007152556 1133.2000007152558 L 2914.7000014305113 1133.2000007152558" stroke-linejoin="round" stroke-miterlimit="10" stroke-width="10"/><path fill="none" stroke="url(#cSMrBPSeqJIv)" paint-order="fill stroke markers" d=" M 926.7000007152558 2730.200007152557 L 801.6000003576278 2730.200007152557 L 801.6000003576278 2730.200007152557 L 676.5 2730.200007152557" stroke-linejoin="round" stroke-miterlimit="10" stroke-width="10"/><path fill="none" stroke="url(#ThhRpDRyuhrG)" paint-order="fill stroke markers" d=" M 400 3021.9000078678127 L 400 2896.800007510185 L 400 2896.800007510185 L 400 2771.700007152557" stroke-linejoin="round" stroke-miterlimit="10" stroke-width="10"/><path fill="none" stroke="url(#PDlXuDZRTmWg)" paint-order="fill stroke markers" d=" M 676.5 3063.4000078678127 L 801.6000003576279 3063.4000078678127 L 801.6000003576279 2730.200007152557 L 926.7000007152558 2730.200007152557" stroke-linejoin="round" stroke-miterlimit="10" stroke-width="10"/><path fill="none" stroke="url(#OCXqtPGJRtgu)" paint-order="fill stroke markers" d=" M 400 3754.100010728836 L 400 3262.9000089406964 L 400 3262.9000089406964 L 400 2771.700007152557" stroke-linejoin="round" stroke-miterlimit="10" stroke-width="10"/><path fill="none" stroke="url(#hSnCUVAMMnyE)" paint-order="fill stroke markers" d=" M 400 3887.1000114440917 L 400 3329.400009298324 L 400 3329.400009298324 L 400 2771.700007152557" stroke-linejoin="round" stroke-miterlimit="10" stroke-width="10"/><path fill="none" stroke="url(#NAJXNNExSEFO)" paint-order="fill stroke markers" d=" M 400 3621.1000100135802 L 400 3196.4000085830685 L 400 3196.4000085830685 L 400 2771.700007152557" stroke-linejoin="round" stroke-miterlimit="10" stroke-width="10"/><path fill="none" stroke="url(#lHKcsDwSOlTA)" paint-order="fill stroke markers" d=" M 926.7000007152558 3196.4000085830685 L 801.6000003576278 3196.4000085830685 L 801.6000003576278 3063.4000078678127 L 676.5 3063.4000078678127" stroke-linejoin="round" stroke-miterlimit="10" stroke-width="10"/><path fill="none" stroke="url(#riuvGUPkTNxX)" paint-order="fill stroke markers" d=" M 1203.2000007152558 3237.9000085830685 L 1203.2000007152558 3363.0000089406967 L 400 3363.0000089406967 L 400 3488.1000092983245" stroke-linejoin="round" stroke-miterlimit="10" stroke-width="10"/><path fill="none" stroke="url(#FPiDdHmUGtNI)" paint-order="fill stroke markers" d=" M 400 3488.1000092983245 L 400 3129.9000082254406 L 400 3129.9000082254406 L 400 2771.700007152557" stroke-linejoin="round" stroke-miterlimit="10" stroke-width="10"/><path fill="none" stroke="url(#METaDRZEzAeI)" paint-order="fill stroke markers" d=" M 926.7000007152558 3063.4000078678127 L 801.6000003576278 3063.4000078678127 L 801.6000003576278 3063.4000078678127 L 676.5 3063.4000078678127" stroke-linejoin="round" stroke-miterlimit="10" stroke-width="10"/><path fill="none" stroke="url(#MJCDbJqJWiDL)" paint-order="fill stroke markers" d=" M 1203.2000007152558 3104.9000078678127 L 1203.2000007152558 3429.5000092983246 L 400 3429.5000092983246 L 400 3754.100010728836" stroke-linejoin="round" stroke-miterlimit="10" stroke-width="10"/><path fill="none" stroke="url(#MGyVVxeDDkQz)" paint-order="fill stroke markers" d=" M 2914.7000014305113 1133.2000007152558 L 1795.6000007152556 1133.2000007152558 L 1795.6000007152556 1133.2000007152558 L 676.5 1133.2000007152558" stroke-linejoin="round" stroke-miterlimit="10" stroke-width="10"/><path fill="none" stroke="url(#fNRuUJSsXFzP)" paint-order="fill stroke markers" d=" M 3191.2000014305113 1174.7000007152558 L 3191.2000014305113 2530.9000060796734 L 400 2530.9000060796734 L 400 3887.1000114440917" stroke-linejoin="round" stroke-miterlimit="10" stroke-width="10"/><path fill="none" stroke="url(#ZkHAwTnZWGbD)" paint-order="fill stroke markers" d=" M 3191.2000014305113 1174.7000007152558 L 3191.2000014305113 1466.4000014305116 L 3191.2000014305113 1466.4000014305116 L 3191.2000014305113 1758.1000021457673" stroke-linejoin="round" stroke-miterlimit="10" stroke-width="10"/><path fill="none" stroke="url(#TNwHpTSKFyTP)" paint-order="fill stroke markers" d=" M 2914.7000014305113 1133.2000007152558 L 2639.7000010728834 1133.2000007152558 L 2639.7000010728834 1432.200002861023 L 2364.7000007152556 1432.200002861023" stroke-linejoin="round" stroke-miterlimit="10" stroke-width="10"/><path fill="none" stroke="url(#QWSHIayqXTAu)" paint-order="fill stroke markers" d=" M 3191.2000014305113 1174.7000007152558 L 3191.2000014305113 1299.8000010728838 L 3191.2000014305113 1299.8000010728838 L 3191.2000014305113 1424.9000014305116" stroke-linejoin="round" stroke-miterlimit="10" stroke-width="10"/><path fill="none" stroke="url(#LxnMTFORmlFU)" paint-order="fill stroke markers" d=" M 3191.2000014305113 1507.9000014305116 L 3191.2000014305113 2697.5000064373016 L 400 2697.5000064373016 L 400 3887.1000114440917" stroke-linejoin="round" stroke-miterlimit="10" stroke-width="10"/><path fill="none" stroke="url(#NgnhUGyfosXh)" paint-order="fill stroke markers" d=" M 2914.7000014305113 1466.4000014305116 L 1795.6000007152556 1466.4000014305116 L 1795.6000007152556 3662.6000100135802 L 676.5 3662.6000100135802" stroke-linejoin="round" stroke-miterlimit="10" stroke-width="10"/><path fill="rgb(225,240,255)" stroke="rgb(29,122,218)" paint-order="fill stroke markers" d=" M 2088.2000007152556 994.2000007152558 L 2354.2000007152556 994.2000007152558 L 2354.2000007152556 994.2000007152558 A 8 8 0 0 1 2362.2000007152556 1002.2000007152558 L 2362.2000007152556 1064.2000007152558 L 2362.2000007152556 1064.2000007152558 A 8 8 0 0 1 2354.2000007152556 1072.2000007152558 L 1822.2000007152556 1072.2000007152558 L 1822.2000007152556 1072.2000007152558 A 8 8 0 0 1 1814.2000007152556 1064.2000007152558 L 1814.2000007152556 1002.2000007152558 L 1814.2000007152556 1002.2000007152558 A 8 8 0 0 1 1822.2000007152556 994.2000007152558 L 2088.2000007152556 994.2000007152558 Z" fill-opacity="1" stroke-opacity="1" stroke-miterlimit="10" stroke-width="5"/><text fill="rgb(0,0,0)" stroke="none" font-family="Avenir, Helvetica, Arial, sans-serif" font-size="32px" font-style="normal" font-weight="bold" text-decoration="normal" x="2088.2000007152556" y="1049.2000007152558" text-anchor="middle" dominant-baseline="text-after-edge" fill-opacity="1">INSTANCE_DEVICE_NAME</text><path fill="rgb(225,240,255)" stroke="rgb(29,122,218)" paint-order="fill stroke markers" d=" M 2088.2000007152556 1127.2000014305115 L 2354.2000007152556 1127.2000014305115 L 2354.2000007152556 1127.2000014305115 A 8 8 0 0 1 2362.2000007152556 1135.2000014305115 L 2362.2000007152556 1197.2000014305115 L 2362.2000007152556 1197.2000014305115 A 8 8 0 0 1 2354.2000007152556 1205.2000014305115 L 1822.2000007152556 1205.2000014305115 L 1822.2000007152556 1205.2000014305115 A 8 8 0 0 1 1814.2000007152556 1197.2000014305115 L 1814.2000007152556 1135.2000014305115 L 1814.2000007152556 1135.2000014305115 A 8 8 0 0 1 1822.2000007152556 1127.2000014305115 L 2088.2000007152556 1127.2000014305115 Z" fill-opacity="1" stroke-opacity="1" stroke-miterlimit="10" stroke-width="5"/><text fill="rgb(0,0,0)" stroke="none" font-family="Avenir, Helvetica, Arial, sans-serif" font-size="32px" font-style="normal" font-weight="bold" text-decoration="normal" x="2088.2000007152556" y="1182.2000014305115" text-anchor="middle" dominant-baseline="text-after-edge" fill-opacity="1">PATH_TO_PUBLIC_KEY</text><path fill="rgb(225,240,255)" stroke="rgb(29,122,218)" paint-order="fill stroke markers" d=" M 2088.2000007152556 1260.2000021457673 L 2354.2000007152556 1260.2000021457673 L 2354.2000007152556 1260.2000021457673 A 8 8 0 0 1 2362.2000007152556 1268.2000021457673 L 2362.2000007152556 1330.2000021457673 L 2362.2000007152556 1330.2000021457673 A 8 8 0 0 1 2354.2000007152556 1338.2000021457673 L 1822.2000007152556 1338.2000021457673 L 1822.2000007152556 1338.2000021457673 A 8 8 0 0 1 1814.2000007152556 1330.2000021457673 L 1814.2000007152556 1268.2000021457673 L 1814.2000007152556 1268.2000021457673 A 8 8 0 0 1 1822.2000007152556 1260.2000021457673 L 2088.2000007152556 1260.2000021457673 Z" fill-opacity="1" stroke-opacity="1" stroke-miterlimit="10" stroke-width="5"/><text fill="rgb(0,0,0)" stroke="none" font-family="Avenir, Helvetica, Arial, sans-serif" font-size="32px" font-style="normal" font-weight="bold" text-decoration="normal" x="2088.2000007152556" y="1315.2000021457673" text-anchor="middle" dominant-baseline="text-after-edge" fill-opacity="1">AWS_SECRET_KEY</text><path fill="rgb(225,240,255)" stroke="rgb(29,122,218)" paint-order="fill stroke markers" d=" M 2088.2000007152556 1393.200002861023 L 2354.2000007152556 1393.200002861023 L 2354.2000007152556 1393.200002861023 A 8 8 0 0 1 2362.2000007152556 1401.200002861023 L 2362.2000007152556 1463.200002861023 L 2362.2000007152556 1463.200002861023 A 8 8 0 0 1 2354.2000007152556 1471.200002861023 L 1822.2000007152556 1471.200002861023 L 1822.2000007152556 1471.200002861023 A 8 8 0 0 1 1814.2000007152556 1463.200002861023 L 1814.2000007152556 1401.200002861023 L 1814.2000007152556 1401.200002861023 A 8 8 0 0 1 1822.2000007152556 1393.200002861023 L 2088.2000007152556 1393.200002861023 Z" fill-opacity="1" stroke-opacity="1" stroke-miterlimit="10" stroke-width="5"/><text fill="rgb(0,0,0)" stroke="none" font-family="Avenir, Helvetica, Arial, sans-serif" font-size="32px" font-style="normal" font-weight="bold" text-decoration="normal" x="2088.2000007152556" y="1448.200002861023" text-anchor="middle" dominant-baseline="text-after-edge" fill-opacity="1">RDS_PASSWORD</text><path fill="rgb(225,240,255)" stroke="rgb(29,122,218)" paint-order="fill stroke markers" d=" M 2088.2000007152556 1526.2000035762787 L 2354.2000007152556 1526.2000035762787 L 2354.2000007152556 1526.2000035762787 A 8 8 0 0 1 2362.2000007152556 1534.2000035762787 L 2362.2000007152556 1596.2000035762787 L 2362.2000007152556 1596.2000035762787 A 8 8 0 0 1 2354.2000007152556 1604.2000035762787 L 1822.2000007152556 1604.2000035762787 L 1822.2000007152556 1604.2000035762787 A 8 8 0 0 1 1814.2000007152556 1596.2000035762787 L 1814.2000007152556 1534.2000035762787 L 1814.2000007152556 1534.2000035762787 A 8 8 0 0 1 1822.2000007152556 1526.2000035762787 L 2088.2000007152556 1526.2000035762787 Z" fill-opacity="1" stroke-opacity="1" stroke-miterlimit="10" stroke-width="5"/><text fill="rgb(0,0,0)" stroke="none" font-family="Avenir, Helvetica, Arial, sans-serif" font-size="32px" font-style="normal" font-weight="bold" text-decoration="normal" x="2088.2000007152556" y="1581.2000035762787" text-anchor="middle" dominant-baseline="text-after-edge" fill-opacity="1">AWS_REGION</text><path fill="rgb(225,240,255)" stroke="rgb(29,122,218)" paint-order="fill stroke markers" d=" M 2088.2000007152556 1659.2000042915345 L 2354.2000007152556 1659.2000042915345 L 2354.2000007152556 1659.2000042915345 A 8 8 0 0 1 2362.2000007152556 1667.2000042915345 L 2362.2000007152556 1729.2000042915345 L 2362.2000007152556 1729.2000042915345 A 8 8 0 0 1 2354.2000007152556 1737.2000042915345 L 1822.2000007152556 1737.2000042915345 L 1822.2000007152556 1737.2000042915345 A 8 8 0 0 1 1814.2000007152556 1729.2000042915345 L 1814.2000007152556 1667.2000042915345 L 1814.2000007152556 1667.2000042915345 A 8 8 0 0 1 1822.2000007152556 1659.2000042915345 L 2088.2000007152556 1659.2000042915345 Z" fill-opacity="1" stroke-opacity="1" stroke-miterlimit="10" stroke-width="5"/><text fill="rgb(0,0,0)" stroke="none" font-family="Avenir, Helvetica, Arial, sans-serif" font-size="32px" font-style="normal" font-weight="bold" text-decoration="normal" x="2088.2000007152556" y="1714.2000042915345" text-anchor="middle" dominant-baseline="text-after-edge" fill-opacity="1">PATH_TO_PRIVATE_KEY</text><path fill="rgb(225,240,255)" stroke="rgb(29,122,218)" paint-order="fill stroke markers" d=" M 2088.2000007152556 1792.2000050067902 L 2354.2000007152556 1792.2000050067902 L 2354.2000007152556 1792.2000050067902 A 8 8 0 0 1 2362.2000007152556 1800.2000050067902 L 2362.2000007152556 1862.2000050067902 L 2362.2000007152556 1862.2000050067902 A 8 8 0 0 1 2354.2000007152556 1870.2000050067902 L 1822.2000007152556 1870.2000050067902 L 1822.2000007152556 1870.2000050067902 A 8 8 0 0 1 1814.2000007152556 1862.2000050067902 L 1814.2000007152556 1800.2000050067902 L 1814.2000007152556 1800.2000050067902 A 8 8 0 0 1 1822.2000007152556 1792.2000050067902 L 2088.2000007152556 1792.2000050067902 Z" fill-opacity="1" stroke-opacity="1" stroke-miterlimit="10" stroke-width="5"/><text fill="rgb(0,0,0)" stroke="none" font-family="Avenir, Helvetica, Arial, sans-serif" font-size="32px" font-style="normal" font-weight="bold" text-decoration="normal" x="2088.2000007152556" y="1847.2000050067902" text-anchor="middle" dominant-baseline="text-after-edge" fill-opacity="1">AWS_ACCESS_KEY</text><path fill="rgb(225,240,255)" stroke="rgb(29,122,218)" paint-order="fill stroke markers" d=" M 2088.2000007152556 1925.200005722046 L 2354.2000007152556 1925.200005722046 L 2354.2000007152556 1925.200005722046 A 8 8 0 0 1 2362.2000007152556 1933.200005722046 L 2362.2000007152556 1995.200005722046 L 2362.2000007152556 1995.200005722046 A 8 8 0 0 1 2354.2000007152556 2003.200005722046 L 1822.2000007152556 2003.200005722046 L 1822.2000007152556 2003.200005722046 A 8 8 0 0 1 1814.2000007152556 1995.200005722046 L 1814.2000007152556 1933.200005722046 L 1814.2000007152556 1933.200005722046 A 8 8 0 0 1 1822.2000007152556 1925.200005722046 L 2088.2000007152556 1925.200005722046 Z" fill-opacity="1" stroke-opacity="1" stroke-miterlimit="10" stroke-width="5"/><text fill="rgb(0,0,0)" stroke="none" font-family="Avenir, Helvetica, Arial, sans-serif" font-size="32px" font-style="normal" font-weight="bold" text-decoration="normal" x="2088.2000007152556" y="1980.200005722046" text-anchor="middle" dominant-baseline="text-after-edge" fill-opacity="1">AMIS</text><path fill="rgb(225,240,255)" stroke="rgb(29,122,218)" paint-order="fill stroke markers" d=" M 2088.2000007152556 2058.2000064373015 L 2354.2000007152556 2058.2000064373015 L 2354.2000007152556 2058.2000064373015 A 8 8 0 0 1 2362.2000007152556 2066.2000064373015 L 2362.2000007152556 2128.2000064373015 L 2362.2000007152556 2128.2000064373015 A 8 8 0 0 1 2354.2000007152556 2136.2000064373015 L 1822.2000007152556 2136.2000064373015 L 1822.2000007152556 2136.2000064373015 A 8 8 0 0 1 1814.2000007152556 2128.2000064373015 L 1814.2000007152556 2066.2000064373015 L 1814.2000007152556 2066.2000064373015 A 8 8 0 0 1 1822.2000007152556 2058.2000064373015 L 2088.2000007152556 2058.2000064373015 Z" fill-opacity="1" stroke-opacity="1" stroke-miterlimit="10" stroke-width="5"/><text fill="rgb(0,0,0)" stroke="none" font-family="Avenir, Helvetica, Arial, sans-serif" font-size="32px" font-style="normal" font-weight="bold" text-decoration="normal" x="2088.2000007152556" y="2113.2000064373015" text-anchor="middle" dominant-baseline="text-after-edge" fill-opacity="1">INSTANCE_USERNAME</text><path fill="rgb(255,255,255)" stroke="rgb(211,211,211)" paint-order="fill stroke markers" d=" M 400 3490.6000092983245 L 666 3490.6000092983245 L 666 3490.6000092983245 A 8 8 0 0 1 674 3498.6000092983245 L 674 3560.6000092983245 L 674 3560.6000092983245 A 8 8 0 0 1 666 3568.6000092983245 L 134 3568.6000092983245 L 134 3568.6000092983245 A 8 8 0 0 1 126 3560.6000092983245 L 126 3498.6000092983245 L 126 3498.6000092983245 A 8 8 0 0 1 134 3490.6000092983245 L 400 3490.6000092983245 Z" fill-opacity="1" stroke-opacity="1" stroke-miterlimit="10" stroke-width="5"/><text fill="rgb(0,0,0)" stroke="none" font-family="Avenir, Helvetica, Arial, sans-serif" font-size="32px" font-style="normal" font-weight="bold" text-decoration="normal" x="400" y="3545.6000092983245" text-anchor="middle" dominant-baseline="text-after-edge" fill-opacity="1">main-public-2</text><path fill="rgb(255,255,255)" stroke="rgb(211,211,211)" paint-order="fill stroke markers" d=" M 1203.2000007152558 3024.4000078678127 L 1469.2000007152558 3024.4000078678127 L 1469.2000007152558 3024.4000078678127 A 8 8 0 0 1 1477.2000007152558 3032.4000078678127 L 1477.2000007152558 3094.4000078678127 L 1477.2000007152558 3094.4000078678127 A 8 8 0 0 1 1469.2000007152558 3102.4000078678127 L 937.2000007152558 3102.4000078678127 L 937.2000007152558 3102.4000078678127 A 8 8 0 0 1 929.2000007152558 3094.4000078678127 L 929.2000007152558 3032.4000078678127 L 929.2000007152558 3032.4000078678127 A 8 8 0 0 1 937.2000007152558 3024.4000078678127 L 1203.2000007152558 3024.4000078678127 Z" fill-opacity="1" stroke-opacity="1" stroke-miterlimit="10" stroke-width="5"/><text fill="rgb(0,0,0)" stroke="none" font-family="Avenir, Helvetica, Arial, sans-serif" font-size="32px" font-style="normal" font-weight="bold" text-decoration="normal" x="1203.2000007152558" y="3079.4000078678127" text-anchor="middle" dominant-baseline="text-after-edge" fill-opacity="1">main-public-1-a</text><path fill="rgb(255,255,255)" stroke="rgb(211,211,211)" paint-order="fill stroke markers" d=" M 400 3623.6000100135802 L 666 3623.6000100135802 L 666 3623.6000100135802 A 8 8 0 0 1 674 3631.6000100135802 L 674 3693.6000100135802 L 674 3693.6000100135802 A 8 8 0 0 1 666 3701.6000100135802 L 134 3701.6000100135802 L 134 3701.6000100135802 A 8 8 0 0 1 126 3693.6000100135802 L 126 3631.6000100135802 L 126 3631.6000100135802 A 8 8 0 0 1 134 3623.6000100135802 L 400 3623.6000100135802 Z" fill-opacity="1" stroke-opacity="1" stroke-miterlimit="10" stroke-width="5"/><text fill="rgb(0,0,0)" stroke="none" font-family="Avenir, Helvetica, Arial, sans-serif" font-size="32px" font-style="normal" font-weight="bold" text-decoration="normal" x="400" y="3678.6000100135802" text-anchor="middle" dominant-baseline="text-after-edge" fill-opacity="1">main-private-2</text><path fill="rgb(255,255,255)" stroke="rgb(211,211,211)" paint-order="fill stroke markers" d=" M 400 2691.200007152557 L 666 2691.200007152557 L 666 2691.200007152557 A 8 8 0 0 1 674 2699.200007152557 L 674 2761.200007152557 L 674 2761.200007152557 A 8 8 0 0 1 666 2769.200007152557 L 134 2769.200007152557 L 134 2769.200007152557 A 8 8 0 0 1 126 2761.200007152557 L 126 2699.200007152557 L 126 2699.200007152557 A 8 8 0 0 1 134 2691.200007152557 L 400 2691.200007152557 Z" fill-opacity="1" stroke-opacity="1" stroke-miterlimit="10" stroke-width="5"/><text fill="rgb(0,0,0)" stroke="none" font-family="Avenir, Helvetica, Arial, sans-serif" font-size="32px" font-style="normal" font-weight="bold" text-decoration="normal" x="400" y="2746.200007152557" text-anchor="middle" dominant-baseline="text-after-edge" fill-opacity="1">main</text><path fill="rgb(255,255,255)" stroke="rgb(211,211,211)" paint-order="fill stroke markers" d=" M 1203.2000007152558 3157.4000085830685 L 1469.2000007152558 3157.4000085830685 L 1469.2000007152558 3157.4000085830685 A 8 8 0 0 1 1477.2000007152558 3165.4000085830685 L 1477.2000007152558 3227.4000085830685 L 1477.2000007152558 3227.4000085830685 A 8 8 0 0 1 1469.2000007152558 3235.4000085830685 L 937.2000007152558 3235.4000085830685 L 937.2000007152558 3235.4000085830685 A 8 8 0 0 1 929.2000007152558 3227.4000085830685 L 929.2000007152558 3165.4000085830685 L 929.2000007152558 3165.4000085830685 A 8 8 0 0 1 937.2000007152558 3157.4000085830685 L 1203.2000007152558 3157.4000085830685 Z" fill-opacity="1" stroke-opacity="1" stroke-miterlimit="10" stroke-width="5"/><text fill="rgb(0,0,0)" stroke="none" font-family="Avenir, Helvetica, Arial, sans-serif" font-size="32px" font-style="normal" font-weight="bold" text-decoration="normal" x="1203.2000007152558" y="3212.4000085830685" text-anchor="middle" dominant-baseline="text-after-edge" fill-opacity="1">main-public-2-a</text><path fill="rgb(255,255,255)" stroke="rgb(211,211,211)" paint-order="fill stroke markers" d=" M 400 3756.600010728836 L 666 3756.600010728836 L 666 3756.600010728836 A 8 8 0 0 1 674 3764.600010728836 L 674 3826.600010728836 L 674 3826.600010728836 A 8 8 0 0 1 666 3834.600010728836 L 134 3834.600010728836 L 134 3834.600010728836 A 8 8 0 0 1 126 3826.600010728836 L 126 3764.600010728836 L 126 3764.600010728836 A 8 8 0 0 1 134 3756.600010728836 L 400 3756.600010728836 Z" fill-opacity="1" stroke-opacity="1" stroke-miterlimit="10" stroke-width="5"/><text fill="rgb(0,0,0)" stroke="none" font-family="Avenir, Helvetica, Arial, sans-serif" font-size="32px" font-style="normal" font-weight="bold" text-decoration="normal" x="400" y="3811.600010728836" text-anchor="middle" dominant-baseline="text-after-edge" fill-opacity="1">main-public-1</text><path fill="rgb(255,255,255)" stroke="rgb(211,211,211)" paint-order="fill stroke markers" d=" M 400 3889.6000114440917 L 666 3889.6000114440917 L 666 3889.6000114440917 A 8 8 0 0 1 674 3897.6000114440917 L 674 3959.6000114440917 L 674 3959.6000114440917 A 8 8 0 0 1 666 3967.6000114440917 L 134 3967.6000114440917 L 134 3967.6000114440917 A 8 8 0 0 1 126 3959.6000114440917 L 126 3897.6000114440917 L 126 3897.6000114440917 A 8 8 0 0 1 134 3889.6000114440917 L 400 3889.6000114440917 Z" fill-opacity="1" stroke-opacity="1" stroke-miterlimit="10" stroke-width="5"/><text fill="rgb(0,0,0)" stroke="none" font-family="Avenir, Helvetica, Arial, sans-serif" font-size="32px" font-style="normal" font-weight="bold" text-decoration="normal" x="400" y="3944.6000114440917" text-anchor="middle" dominant-baseline="text-after-edge" fill-opacity="1">main-private-1</text><path fill="rgb(255,255,255)" stroke="rgb(211,211,211)" paint-order="fill stroke markers" d=" M 1203.2000007152558 2691.200007152557 L 1469.2000007152558 2691.200007152557 L 1469.2000007152558 2691.200007152557 A 8 8 0 0 1 1477.2000007152558 2699.200007152557 L 1477.2000007152558 2761.200007152557 L 1477.2000007152558 2761.200007152557 A 8 8 0 0 1 1469.2000007152558 2769.200007152557 L 937.2000007152558 2769.200007152557 L 937.2000007152558 2769.200007152557 A 8 8 0 0 1 929.2000007152558 2761.200007152557 L 929.2000007152558 2699.200007152557 L 929.2000007152558 2699.200007152557 A 8 8 0 0 1 937.2000007152558 2691.200007152557 L 1203.2000007152558 2691.200007152557 Z" fill-opacity="1" stroke-opacity="1" stroke-miterlimit="10" stroke-width="5"/><text fill="rgb(0,0,0)" stroke="none" font-family="Avenir, Helvetica, Arial, sans-serif" font-size="32px" font-style="normal" font-weight="bold" text-decoration="normal" x="1203.2000007152558" y="2746.200007152557" text-anchor="middle" dominant-baseline="text-after-edge" fill-opacity="1">main-gw</text><path fill="rgb(255,255,255)" stroke="rgb(211,211,211)" paint-order="fill stroke markers" d=" M 400 3024.4000078678127 L 666 3024.4000078678127 L 666 3024.4000078678127 A 8 8 0 0 1 674 3032.4000078678127 L 674 3094.4000078678127 L 674 3094.4000078678127 A 8 8 0 0 1 666 3102.4000078678127 L 134 3102.4000078678127 L 134 3102.4000078678127 A 8 8 0 0 1 126 3094.4000078678127 L 126 3032.4000078678127 L 126 3032.4000078678127 A 8 8 0 0 1 134 3024.4000078678127 L 400 3024.4000078678127 Z" fill-opacity="1" stroke-opacity="1" stroke-miterlimit="10" stroke-width="5"/><text fill="rgb(0,0,0)" stroke="none" font-family="Avenir, Helvetica, Arial, sans-serif" font-size="32px" font-style="normal" font-weight="bold" text-decoration="normal" x="400" y="3079.4000078678127" text-anchor="middle" dominant-baseline="text-after-edge" fill-opacity="1">main-public</text><path fill="rgb(255,255,255)" stroke="rgb(211,211,211)" paint-order="fill stroke markers" d=" M 3191.2000014305113 1094.2000007152558 L 3457.2000014305113 1094.2000007152558 L 3457.2000014305113 1094.2000007152558 A 8 8 0 0 1 3465.2000014305113 1102.2000007152558 L 3465.2000014305113 1164.2000007152558 L 3465.2000014305113 1164.2000007152558 A 8 8 0 0 1 3457.2000014305113 1172.2000007152558 L 2925.2000014305113 1172.2000007152558 L 2925.2000014305113 1172.2000007152558 A 8 8 0 0 1 2917.2000014305113 1164.2000007152558 L 2917.2000014305113 1102.2000007152558 L 2917.2000014305113 1102.2000007152558 A 8 8 0 0 1 2925.2000014305113 1094.2000007152558 L 3191.2000014305113 1094.2000007152558 Z" fill-opacity="1" stroke-opacity="1" stroke-miterlimit="10" stroke-width="5"/><text fill="rgb(0,0,0)" stroke="none" font-family="Avenir, Helvetica, Arial, sans-serif" font-size="32px" font-style="normal" font-weight="bold" text-decoration="normal" x="3191.2000014305113" y="1149.2000007152558" text-anchor="middle" dominant-baseline="text-after-edge" fill-opacity="1">mariadb</text><path fill="rgb(255,255,255)" stroke="rgb(211,211,211)" paint-order="fill stroke markers" d=" M 3191.2000014305113 1427.4000014305116 L 3457.2000014305113 1427.4000014305116 L 3457.2000014305113 1427.4000014305116 A 8 8 0 0 1 3465.2000014305113 1435.4000014305116 L 3465.2000014305113 1497.4000014305116 L 3465.2000014305113 1497.4000014305116 A 8 8 0 0 1 3457.2000014305113 1505.4000014305116 L 2925.2000014305113 1505.4000014305116 L 2925.2000014305113 1505.4000014305116 A 8 8 0 0 1 2917.2000014305113 1497.4000014305116 L 2917.2000014305113 1435.4000014305116 L 2917.2000014305113 1435.4000014305116 A 8 8 0 0 1 2925.2000014305113 1427.4000014305116 L 3191.2000014305113 1427.4000014305116 Z" fill-opacity="1" stroke-opacity="1" stroke-miterlimit="10" stroke-width="5"/><text fill="rgb(0,0,0)" stroke="none" font-family="Avenir, Helvetica, Arial, sans-serif" font-size="32px" font-style="normal" font-weight="bold" text-decoration="normal" x="3191.2000014305113" y="1482.4000014305116" text-anchor="middle" dominant-baseline="text-after-edge" fill-opacity="1">mariadb-subnet</text><path fill="rgb(255,255,255)" stroke="rgb(211,211,211)" paint-order="fill stroke markers" d=" M 3191.2000014305113 1760.6000021457673 L 3457.2000014305113 1760.6000021457673 L 3457.2000014305113 1760.6000021457673 A 8 8 0 0 1 3465.2000014305113 1768.6000021457673 L 3465.2000014305113 1830.6000021457673 L 3465.2000014305113 1830.6000021457673 A 8 8 0 0 1 3457.2000014305113 1838.6000021457673 L 2925.2000014305113 1838.6000021457673 L 2925.2000014305113 1838.6000021457673 A 8 8 0 0 1 2917.2000014305113 1830.6000021457673 L 2917.2000014305113 1768.6000021457673 L 2917.2000014305113 1768.6000021457673 A 8 8 0 0 1 2925.2000014305113 1760.6000021457673 L 3191.2000014305113 1760.6000021457673 Z" fill-opacity="1" stroke-opacity="1" stroke-miterlimit="10" stroke-width="5"/><text fill="rgb(0,0,0)" stroke="none" font-family="Avenir, Helvetica, Arial, sans-serif" font-size="32px" font-style="normal" font-weight="bold" text-decoration="normal" x="3191.2000014305113" y="1815.6000021457673" text-anchor="middle" dominant-baseline="text-after-edge" fill-opacity="1">mariadb-parameters</text><path fill="rgb(255,255,255)" stroke="rgb(211,211,211)" paint-order="fill stroke markers" d=" M 400 1094.2000007152558 L 666 1094.2000007152558 L 666 1094.2000007152558 A 8 8 0 0 1 674 1102.2000007152558 L 674 1164.2000007152558 L 674 1164.2000007152558 A 8 8 0 0 1 666 1172.2000007152558 L 134 1172.2000007152558 L 134 1172.2000007152558 A 8 8 0 0 1 126 1164.2000007152558 L 126 1102.2000007152558 L 126 1102.2000007152558 A 8 8 0 0 1 134 1094.2000007152558 L 400 1094.2000007152558 Z" fill-opacity="1" stroke-opacity="1" stroke-miterlimit="10" stroke-width="5"/><text fill="rgb(0,0,0)" stroke="none" font-family="Avenir, Helvetica, Arial, sans-serif" font-size="32px" font-style="normal" font-weight="bold" text-decoration="normal" x="400" y="1149.2000007152558" text-anchor="middle" dominant-baseline="text-after-edge" fill-opacity="1">allow-mariadb</text><path fill="rgb(255,255,255)" stroke="rgb(211,211,211)" paint-order="fill stroke markers" d=" M 985 1094.2000007152558 L 1251 1094.2000007152558 L 1251 1094.2000007152558 A 8 8 0 0 1 1259 1102.2000007152558 L 1259 1164.2000007152558 L 1259 1164.2000007152558 A 8 8 0 0 1 1251 1172.2000007152558 L 719 1172.2000007152558 L 719 1172.2000007152558 A 8 8 0 0 1 711 1164.2000007152558 L 711 1102.2000007152558 L 711 1102.2000007152558 A 8 8 0 0 1 719 1094.2000007152558 L 985 1094.2000007152558 Z" fill-opacity="1" stroke-opacity="1" stroke-miterlimit="10" stroke-width="5"/><text fill="rgb(0,0,0)" stroke="none" font-family="Avenir, Helvetica, Arial, sans-serif" font-size="32px" font-style="normal" font-weight="bold" text-decoration="normal" x="985" y="1149.2000007152558" text-anchor="middle" dominant-baseline="text-after-edge" fill-opacity="1">example-instance</text><path fill="rgb(255,255,255)" stroke="rgb(211,211,211)" paint-order="fill stroke markers" d=" M 1403.0000007152557 361 L 1669.0000007152557 361 L 1669.0000007152557 361 A 8 8 0 0 1 1677.0000007152557 369 L 1677.0000007152557 431 L 1677.0000007152557 431 A 8 8 0 0 1 1669.0000007152557 439 L 1137.0000007152557 439 L 1137.0000007152557 439 A 8 8 0 0 1 1129.0000007152557 431 L 1129.0000007152557 369 L 1129.0000007152557 369 A 8 8 0 0 1 1137.0000007152557 361 L 1403.0000007152557 361 Z" fill-opacity="1" stroke-opacity="1" stroke-miterlimit="10" stroke-width="5"/><text fill="rgb(0,0,0)" stroke="none" font-family="Avenir, Helvetica, Arial, sans-serif" font-size="32px" font-style="normal" font-weight="bold" text-decoration="normal" x="1403.0000007152557" y="416" text-anchor="middle" dominant-baseline="text-after-edge" fill-opacity="1">mykeypair</text><path fill="rgb(255,255,255)" stroke="rgb(211,211,211)" paint-order="fill stroke markers" d=" M 2606.2000014305113 361 L 2872.2000014305113 361 L 2872.2000014305113 361 A 8 8 0 0 1 2880.2000014305113 369 L 2880.2000014305113 431 L 2880.2000014305113 431 A 8 8 0 0 1 2872.2000014305113 439 L 2340.2000014305113 439 L 2340.2000014305113 439 A 8 8 0 0 1 2332.2000014305113 431 L 2332.2000014305113 369 L 2332.2000014305113 369 A 8 8 0 0 1 2340.2000014305113 361 L 2606.2000014305113 361 Z" fill-opacity="1" stroke-opacity="1" stroke-miterlimit="10" stroke-width="5"/><text fill="rgb(0,0,0)" stroke="none" font-family="Avenir, Helvetica, Arial, sans-serif" font-size="32px" font-style="normal" font-weight="bold" text-decoration="normal" x="2606.2000014305113" y="416" text-anchor="middle" dominant-baseline="text-after-edge" fill-opacity="1">example</text><path fill="rgb(255,247,224)" stroke="rgb(255,193,7)" paint-order="fill stroke markers" d=" M 300 261 L 566 261 L 566 261 A 8 8 0 0 1 574 269 L 574 331 L 574 331 A 8 8 0 0 1 566 339 L 34 339 L 34 339 A 8 8 0 0 1 26 331 L 26 269 L 26 269 A 8 8 0 0 1 34 261 L 300 261 Z" fill-opacity="1" stroke-opacity="1" stroke-miterlimit="10" stroke-width="5"/><text fill="rgb(0,0,0)" stroke="none" font-family="Avenir, Helvetica, Arial, sans-serif" font-size="32px" font-style="normal" font-weight="bold" text-decoration="normal" x="300" y="316" text-anchor="middle" dominant-baseline="text-after-edge" fill-opacity="1">public_ip_address</text><path fill="rgb(255,247,224)" stroke="rgb(255,193,7)" paint-order="fill stroke markers" d=" M 300 394.00000071525574 L 566 394.00000071525574 L 566 394.00000071525574 A 8 8 0 0 1 574 402.00000071525574 L 574 464.00000071525574 L 574 464.00000071525574 A 8 8 0 0 1 566 472.00000071525574 L 34 472.00000071525574 L 34 472.00000071525574 A 8 8 0 0 1 26 464.00000071525574 L 26 402.00000071525574 L 26 402.00000071525574 A 8 8 0 0 1 34 394.00000071525574 L 300 394.00000071525574 Z" fill-opacity="1" stroke-opacity="1" stroke-miterlimit="10" stroke-width="5"/><text fill="rgb(0,0,0)" stroke="none" font-family="Avenir, Helvetica, Arial, sans-serif" font-size="32px" font-style="normal" font-weight="bold" text-decoration="normal" x="300" y="449.00000071525574" text-anchor="middle" dominant-baseline="text-after-edge" fill-opacity="1">rds</text><g transform="scale(10,10) translate(-29.85,-5.050000000000001)"/></g></svg>